# xmcd CD database file
#
# Track frame offsets:
#	150
#	13138
#	25588
#	39200
#	55224
#	69684
#	82741
#	97568
#	121574
#	135910
#	154414
#	168353
#	182899
#	195222
#	211482
#	226006
#
# Disc length: 3292 seconds
#
# Revision: 0
# Processed by: cddbd v1.5.2PL0 Copyright (c) Steve Scherf et al.
# Submitted via: CDex 1.51
#
DISCID=b30cda10
DTITLE=Woody Herman - The Third Herd 'Live' 1952
DYEAR=1952
DGENRE=Jazz
TTITLE0=I Would Do Anything For You
TTITLE1=Love Is Here To Stay
TTITLE2=Wish You Were There
TTITLE3=East Of The Sun
TTITLE4=Baby Clementine
TTITLE5=Stars Fell Of Alabama
TTITLE6=Harlem Nocturne
TTITLE7=Moten Swing
TTITLE8=Nice Work If You Can Get It
TTITLE9=You Belong To Me
TTITLE10=This Is New
TTITLE11=The Goof And I
TTITLE12=I Can't Believe That You're In Love With Me
TTITLE13=Early Autumn
TTITLE14=Blues In Advance
TTITLE15=Woodchoppers Ball
EXTD=YEAR: 1952
EXTT0=
EXTT1=
EXTT2=
EXTT3=
EXTT4=
EXTT5=
EXTT6=
EXTT7=
EXTT8=
EXTT9=
EXTT10=
EXTT11=
EXTT12=
EXTT13=
EXTT14=
EXTT15=
PLAYORDER=
